<svg width="66" height="43" viewBox="0 0 66 43" fill="none" xmlns="http://www.w3.org/2000/svg">
<mask id="path-1-inside-1_813_5763" fill="white">
<path fill-rule="evenodd" clip-rule="evenodd" d="M40.17 5.32216C39.7524 4.75232 39.1482 4.20967 38.4042 3.78017C36.5254 2.69544 34.4671 2.74312 33.8069 3.88666C33.1467 5.03021 34.1346 6.83658 36.0134 7.92131C36.5154 8.21115 37.0302 8.42014 37.5278 8.54898V15.0019C36.1104 14.2497 34.4936 13.8236 32.7772 13.8236C27.1723 13.8236 22.6286 18.3673 22.6286 23.9722C22.6286 29.5771 27.1723 34.1208 32.7772 34.1208C38.382 34.1208 42.9257 29.5772 42.9258 23.9725H42.9259V8.51821C43.3879 8.3879 43.8627 8.18912 44.3266 7.92131C46.2054 6.83658 47.1932 5.03021 46.533 3.88666C45.8728 2.74312 43.8145 2.69544 41.9357 3.78017C41.1918 4.20967 40.5875 4.75232 40.17 5.32216ZM37.053 23.9722C37.053 26.3337 35.1387 28.248 32.7772 28.248C30.4157 28.248 28.5014 26.3337 28.5014 23.9722C28.5014 21.6108 30.4157 19.6964 32.7772 19.6964C35.1387 19.6964 37.053 21.6108 37.053 23.9722Z"/>
</mask>
<path fill-rule="evenodd" clip-rule="evenodd" d="M40.17 5.32216C39.7524 4.75232 39.1482 4.20967 38.4042 3.78017C36.5254 2.69544 34.4671 2.74312 33.8069 3.88666C33.1467 5.03021 34.1346 6.83658 36.0134 7.92131C36.5154 8.21115 37.0302 8.42014 37.5278 8.54898V15.0019C36.1104 14.2497 34.4936 13.8236 32.7772 13.8236C27.1723 13.8236 22.6286 18.3673 22.6286 23.9722C22.6286 29.5771 27.1723 34.1208 32.7772 34.1208C38.382 34.1208 42.9257 29.5772 42.9258 23.9725H42.9259V8.51821C43.3879 8.3879 43.8627 8.18912 44.3266 7.92131C46.2054 6.83658 47.1932 5.03021 46.533 3.88666C45.8728 2.74312 43.8145 2.69544 41.9357 3.78017C41.1918 4.20967 40.5875 4.75232 40.17 5.32216ZM37.053 23.9722C37.053 26.3337 35.1387 28.248 32.7772 28.248C30.4157 28.248 28.5014 26.3337 28.5014 23.9722C28.5014 21.6108 30.4157 19.6964 32.7772 19.6964C35.1387 19.6964 37.053 21.6108 37.053 23.9722Z" fill="white"/>
<path d="M40.17 5.32216L39.9206 5.50485L40.17 5.84511L40.4193 5.50485L40.17 5.32216ZM38.4042 3.78017L38.5588 3.51248L38.5588 3.51248L38.4042 3.78017ZM33.8069 3.88666L33.5392 3.73211L33.5392 3.73212L33.8069 3.88666ZM36.0134 7.92131L35.8588 8.189L35.8588 8.189L36.0134 7.92131ZM37.5278 8.54898H37.8368V8.30973L37.6052 8.24975L37.5278 8.54898ZM37.5278 15.0019L37.3829 15.2749L37.8368 15.5158V15.0019H37.5278ZM42.9258 23.9725V23.6634H42.6167L42.6167 23.9724L42.9258 23.9725ZM42.9259 23.9725V24.2815H43.235V23.9725H42.9259ZM42.9259 8.51821L42.842 8.22072L42.6168 8.28424V8.51821H42.9259ZM44.3266 7.92131L44.172 7.65363L44.172 7.65363L44.3266 7.92131ZM46.533 3.88666L46.2653 4.04121L46.2653 4.04121L46.533 3.88666ZM41.9357 3.78017L41.7811 3.51248L41.7811 3.51248L41.9357 3.78017ZM40.4193 5.13946C39.9741 4.53185 39.3363 3.96137 38.5588 3.51248L38.2497 4.04785C38.9601 4.45797 39.5308 4.97279 39.9206 5.50485L40.4193 5.13946ZM38.5588 3.51248C37.5785 2.94653 36.5389 2.66801 35.6415 2.6888C34.7504 2.70944 33.9439 3.03127 33.5392 3.73211L34.0746 4.04121C34.3302 3.59851 34.8829 3.32473 35.6558 3.30682C36.4222 3.28907 37.3512 3.52907 38.2497 4.04785L38.5588 3.51248ZM33.5392 3.73212C33.1346 4.43296 33.2592 5.29239 33.6868 6.07435C34.1175 6.86195 34.8786 7.62304 35.8588 8.189L36.1679 7.65363C35.2694 7.13485 34.5971 6.4504 34.2292 5.77774C33.8583 5.09944 33.819 4.48391 34.0746 4.04121L33.5392 3.73212ZM35.8588 8.189C36.384 8.49223 36.9247 8.71211 37.4503 8.8482L37.6052 8.24975C37.1357 8.12817 36.6467 7.93007 36.1679 7.65363L35.8588 8.189ZM37.2187 8.54898V15.0019H37.8368V8.54898H37.2187ZM37.6726 14.7288C36.2118 13.9536 34.5453 13.5145 32.7772 13.5145V14.1327C34.4418 14.1327 36.0091 14.5459 37.3829 15.2749L37.6726 14.7288ZM32.7772 13.5145C27.0016 13.5145 22.3195 18.1966 22.3195 23.9722H22.9377C22.9377 18.538 27.343 14.1327 32.7772 14.1327V13.5145ZM22.3195 23.9722C22.3195 29.7478 27.0016 34.4299 32.7772 34.4299V33.8117C27.343 33.8117 22.9377 29.4064 22.9377 23.9722H22.3195ZM32.7772 34.4299C38.5527 34.4299 43.2347 29.748 43.2349 23.9725L42.6167 23.9724C42.6166 29.4065 38.2113 33.8117 32.7772 33.8117V34.4299ZM42.9258 24.2815H42.9259V23.6634H42.9258V24.2815ZM43.235 23.9725V8.51821H42.6168V23.9725H43.235ZM43.0098 8.8157C43.4973 8.6782 43.9958 8.46921 44.4811 8.189L44.172 7.65363C43.7297 7.90902 43.2785 8.0976 42.842 8.22072L43.0098 8.8157ZM44.4811 8.189C45.4614 7.62304 46.2224 6.86195 46.6531 6.07435C47.0808 5.29239 47.2053 4.43296 46.8007 3.73211L46.2653 4.04121C46.5209 4.48391 46.4817 5.09944 46.1107 5.77774C45.7429 6.4504 45.0706 7.13485 44.172 7.65363L44.4811 8.189ZM46.8007 3.73212C46.3961 3.03127 45.5895 2.70944 44.6985 2.6888C43.801 2.66801 42.7614 2.94653 41.7811 3.51248L42.0902 4.04785C42.9888 3.52907 43.9177 3.28907 44.6842 3.30682C45.457 3.32473 46.0097 3.59851 46.2653 4.04121L46.8007 3.73212ZM41.7811 3.51248C41.0036 3.96137 40.3659 4.53185 39.9206 5.13946L40.4193 5.50485C40.8092 4.97279 41.3799 4.45797 42.0902 4.04785L41.7811 3.51248ZM32.7772 28.5571C35.3094 28.5571 37.3621 26.5044 37.3621 23.9722H36.7439C36.7439 26.163 34.9679 27.9389 32.7772 27.9389V28.5571ZM28.1923 23.9722C28.1923 26.5044 30.245 28.5571 32.7772 28.5571V27.9389C30.5865 27.9389 28.8105 26.163 28.8105 23.9722H28.1923ZM32.7772 19.3873C30.245 19.3873 28.1923 21.4401 28.1923 23.9722H28.8105C28.8105 21.7815 30.5865 20.0055 32.7772 20.0055V19.3873ZM37.3621 23.9722C37.3621 21.4401 35.3094 19.3873 32.7772 19.3873V20.0055C34.9679 20.0055 36.7439 21.7815 36.7439 23.9722H37.3621Z" fill="white" mask="url(#path-1-inside-1_813_5763)"/>
<path d="M11 34.1127C9.00793 34.1127 7.30272 33.7183 5.88437 32.9295C4.46602 32.1326 3.37835 31.025 2.62137 29.6067C1.86438 28.1804 1.48589 26.527 1.48589 24.6464C1.48589 22.7659 1.86438 21.1165 2.62137 19.6981C3.37835 18.2718 4.46602 17.1642 5.88437 16.3754C7.30272 15.5786 9.00793 15.1801 11 15.1801C12.9921 15.1801 14.6973 15.5786 16.1156 16.3754C17.534 17.1642 18.6216 18.2718 19.3786 19.6981C20.1356 21.1165 20.5141 22.7659 20.5141 24.6464C20.5141 26.527 20.1356 28.1804 19.3786 29.6067C18.6216 31.025 17.534 32.1326 16.1156 32.9295C14.6973 33.7183 12.9921 34.1127 11 34.1127ZM11.0478 29.2362C11.6056 29.2362 12.0877 29.0489 12.4941 28.6744C12.9004 28.2999 13.2152 27.766 13.4383 27.0728C13.6614 26.3795 13.773 25.5548 13.773 24.5986C13.773 23.6345 13.6614 22.8098 13.4383 22.1245C13.2152 21.4312 12.9004 20.8974 12.4941 20.5229C12.0877 20.1484 11.6056 19.9611 11.0478 19.9611C10.4582 19.9611 9.95217 20.1484 9.52985 20.5229C9.10754 20.8974 8.78482 21.4312 8.56171 22.1245C8.3386 22.8098 8.22704 23.6345 8.22704 24.5986C8.22704 25.5548 8.3386 26.3795 8.56171 27.0728C8.78482 27.766 9.10754 28.2999 9.52985 28.6744C9.95217 29.0489 10.4582 29.2362 11.0478 29.2362Z" fill="white"/>
<path d="M5.88437 32.9295L5.8514 32.9881L5.85165 32.9883L5.88437 32.9295ZM2.62137 29.6067L2.56191 29.6382L2.56198 29.6384L2.62137 29.6067ZM2.62137 19.6981L2.68076 19.7298L2.68083 19.7297L2.62137 19.6981ZM5.88437 16.3754L5.91709 16.4342L5.91734 16.4341L5.88437 16.3754ZM16.1156 16.3754L16.0827 16.4341L16.0829 16.4342L16.1156 16.3754ZM19.3786 19.6981L19.3192 19.7297L19.3192 19.7298L19.3786 19.6981ZM19.3786 29.6067L19.438 29.6384L19.4381 29.6382L19.3786 29.6067ZM16.1156 32.9295L16.1483 32.9883L16.1486 32.9881L16.1156 32.9295ZM12.4941 28.6744L12.5397 28.7239L12.5397 28.7239L12.4941 28.6744ZM13.4383 27.0728L13.5024 27.0934L13.5024 27.0934L13.4383 27.0728ZM13.4383 22.1245L13.3742 22.1451L13.3743 22.1453L13.4383 22.1245ZM12.4941 20.5229L12.5397 20.4734L12.5397 20.4734L12.4941 20.5229ZM8.56171 22.1245L8.62572 22.1453L8.62579 22.1451L8.56171 22.1245ZM8.56171 27.0728L8.62579 27.0522L8.62579 27.0522L8.56171 27.0728ZM11 34.0454C9.0168 34.0454 7.3234 33.6528 5.91709 32.8706L5.85165 32.9883C7.28205 33.7838 8.99906 34.1801 11 34.1801V34.0454ZM5.91734 32.8708C4.51005 32.0802 3.43162 30.9819 2.68076 29.575L2.56198 29.6384C3.32509 31.0682 4.42199 32.1851 5.8514 32.9881L5.91734 32.8708ZM2.68083 29.5751C1.92979 28.16 1.55321 26.5178 1.55321 24.6464H1.41857C1.41857 26.5361 1.79897 28.2007 2.56191 29.6382L2.68083 29.5751ZM1.55321 24.6464C1.55321 22.7751 1.92979 21.1369 2.68076 19.7298L2.56198 19.6665C1.79897 21.0961 1.41857 22.7568 1.41857 24.6464H1.55321ZM2.68083 19.7297C3.43169 18.3149 4.51004 17.2168 5.91709 16.4342L5.85165 16.3166C4.422 17.1117 3.32502 18.2287 2.56191 19.6666L2.68083 19.7297ZM5.91734 16.4341C7.3236 15.644 9.01691 15.2475 11 15.2475V15.1128C8.99896 15.1128 7.28185 15.5131 5.8514 16.3167L5.91734 16.4341ZM11 15.2475C12.9831 15.2475 14.6764 15.644 16.0827 16.4341L16.1486 16.3167C14.7182 15.5131 13.001 15.1128 11 15.1128V15.2475ZM16.0829 16.4342C17.49 17.2168 18.5683 18.3149 19.3192 19.7297L19.4381 19.6666C18.675 18.2287 17.578 17.1117 16.1483 16.3166L16.0829 16.4342ZM19.3192 19.7298C20.0702 21.1369 20.4468 22.7751 20.4468 24.6464H20.5814C20.5814 22.7568 20.201 21.0961 19.438 19.6665L19.3192 19.7298ZM20.4468 24.6464C20.4468 26.5178 20.0702 28.16 19.3192 29.5751L19.4381 29.6382C20.201 28.2007 20.5814 26.5361 20.5814 24.6464H20.4468ZM19.3192 29.575C18.5684 30.9819 17.4899 32.0802 16.0827 32.8708L16.1486 32.9881C17.578 32.1851 18.6749 31.0682 19.438 29.6384L19.3192 29.575ZM16.0829 32.8706C14.6766 33.6528 12.9832 34.0454 11 34.0454V34.1801C13.0009 34.1801 14.718 33.7838 16.1483 32.9883L16.0829 32.8706ZM11.0478 29.3035C11.6223 29.3035 12.1207 29.11 12.5397 28.7239L12.4484 28.6249C12.0546 28.9878 11.5889 29.1688 11.0478 29.1688V29.3035ZM12.5397 28.7239C12.9569 28.3394 13.2768 27.7943 13.5024 27.0934L13.3742 27.0522C13.1536 27.7377 12.844 28.2604 12.4484 28.6249L12.5397 28.7239ZM13.5024 27.0934C13.7282 26.3918 13.8403 25.5598 13.8403 24.5986H13.7056C13.7056 25.5499 13.5946 26.3673 13.3742 27.0522L13.5024 27.0934ZM13.8403 24.5986C13.8403 23.6296 13.7282 22.7975 13.5023 22.1036L13.3743 22.1453C13.5946 22.822 13.7056 23.6393 13.7056 24.5986H13.8403ZM13.5024 22.1039C13.2768 21.403 12.9569 20.8579 12.5397 20.4734L12.4484 20.5724C12.844 20.9369 13.1536 21.4595 13.3742 22.1451L13.5024 22.1039ZM12.5397 20.4734C12.1207 20.0873 11.6223 19.8938 11.0478 19.8938V20.0284C11.5889 20.0284 12.0546 20.2094 12.4484 20.5724L12.5397 20.4734ZM11.0478 19.8938C10.4425 19.8938 9.92041 20.0865 9.48519 20.4725L9.57452 20.5732C9.98393 20.2102 10.4738 20.0284 11.0478 20.0284V19.8938ZM9.48519 20.4725C9.0516 20.857 8.72339 21.4024 8.49763 22.1039L8.62579 22.1451C8.84626 21.4601 9.16348 20.9377 9.57452 20.5732L9.48519 20.4725ZM8.4977 22.1036C8.2718 22.7975 8.15973 23.6296 8.15973 24.5986H8.29436C8.29436 23.6393 8.4054 22.822 8.62572 22.1453L8.4977 22.1036ZM8.15973 24.5986C8.15973 25.5598 8.27182 26.3918 8.49763 27.0934L8.62579 27.0522C8.40537 26.3673 8.29436 25.5499 8.29436 24.5986H8.15973ZM8.49763 27.0934C8.72339 27.7949 9.0516 28.3403 9.48519 28.7248L9.57452 28.624C9.16348 28.2595 8.84626 27.7372 8.62579 27.0522L8.49763 27.0934ZM9.48519 28.7248C9.92041 29.1107 10.4425 29.3035 11.0478 29.3035V29.1688C10.4738 29.1688 9.98393 28.9871 9.57452 28.624L9.48519 28.7248Z" fill="white"/>
<path d="M50.8136 41.1063C50.0567 41.1063 49.3355 41.0465 48.6503 40.927C47.965 40.8154 47.3634 40.66 46.8454 40.4608L48.2797 35.7755C48.8216 35.9667 49.3156 36.0902 49.7618 36.146C50.216 36.2018 50.6025 36.1699 50.9212 36.0504C51.2479 35.9309 51.483 35.7038 51.6264 35.3691L51.7698 35.0344L45.3155 15.8628H52.2001L55.1643 28.5801H55.3556L58.3676 15.8628H65.3L58.6066 35.7516C58.2719 36.7636 57.7859 37.6719 57.1484 38.4767C56.5189 39.2895 55.6902 39.9309 54.6623 40.4011C53.6344 40.8712 52.3515 41.1063 50.8136 41.1063Z" fill="white"/>
<path d="M48.6503 40.927L48.6618 40.8607L48.6611 40.8605L48.6503 40.927ZM46.8454 40.4608L46.7811 40.4411L46.7627 40.5011L46.8213 40.5237L46.8454 40.4608ZM48.2797 35.7755L48.3021 35.712L48.2359 35.6886L48.2154 35.7558L48.2797 35.7755ZM49.7618 36.146L49.7535 36.2128L49.7536 36.2128L49.7618 36.146ZM50.9212 36.0504L50.8981 35.9872L50.8976 35.9874L50.9212 36.0504ZM51.6264 35.3691L51.6883 35.3956L51.6883 35.3956L51.6264 35.3691ZM51.7698 35.0344L51.8317 35.061L51.8418 35.0373L51.8336 35.013L51.7698 35.0344ZM45.3155 15.8628V15.7955H45.2218L45.2517 15.8843L45.3155 15.8628ZM52.2001 15.8628L52.2657 15.8475L52.2536 15.7955H52.2001V15.8628ZM55.1643 28.5801L55.0988 28.5954L55.1109 28.6475H55.1643V28.5801ZM55.3556 28.5801V28.6475H55.4088L55.4211 28.5957L55.3556 28.5801ZM58.3676 15.8628V15.7955H58.3143L58.3021 15.8473L58.3676 15.8628ZM65.3 15.8628L65.3637 15.8843L65.3936 15.7955H65.3V15.8628ZM58.6066 35.7516L58.5428 35.7301L58.5427 35.7305L58.6066 35.7516ZM57.1484 38.4767L57.0956 38.4349L57.0952 38.4355L57.1484 38.4767ZM54.6623 40.4011L54.6343 40.3399L54.6343 40.3399L54.6623 40.4011ZM50.8136 41.0389C50.0602 41.0389 49.343 40.9795 48.6618 40.8607L48.6387 40.9933C49.3281 41.1135 50.0531 41.1736 50.8136 41.1736V41.0389ZM48.6611 40.8605C47.9793 40.7495 47.3823 40.5952 46.8696 40.398L46.8213 40.5237C47.3444 40.7249 47.9507 40.8813 48.6394 40.9934L48.6611 40.8605ZM46.9098 40.4805L48.3441 35.7952L48.2154 35.7558L46.7811 40.4411L46.9098 40.4805ZM48.2573 35.839C48.8025 36.0314 49.3014 36.1563 49.7535 36.2128L49.7702 36.0792C49.3299 36.0242 48.8406 35.9021 48.3021 35.712L48.2573 35.839ZM49.7536 36.2128C50.215 36.2695 50.6131 36.2378 50.9449 36.1134L50.8976 35.9874C50.5919 36.102 50.217 36.1341 49.77 36.0792L49.7536 36.2128ZM50.9443 36.1136C51.2894 35.9874 51.5379 35.7464 51.6883 35.3956L51.5645 35.3426C51.428 35.6611 51.2065 35.8744 50.8981 35.9872L50.9443 36.1136ZM51.6883 35.3956L51.8317 35.061L51.708 35.0079L51.5645 35.3426L51.6883 35.3956ZM51.8336 35.013L45.3793 15.8413L45.2517 15.8843L51.706 35.0559L51.8336 35.013ZM45.3155 15.9301H52.2001V15.7955H45.3155V15.9301ZM52.1346 15.8781L55.0988 28.5954L55.2299 28.5649L52.2657 15.8475L52.1346 15.8781ZM55.1643 28.6475H55.3556V28.5128H55.1643V28.6475ZM55.4211 28.5957L58.4331 15.8783L58.3021 15.8473L55.2901 28.5646L55.4211 28.5957ZM58.3676 15.9301H65.3V15.7955H58.3676V15.9301ZM65.2362 15.8413L58.5428 35.7301L58.6704 35.7731L65.3637 15.8843L65.2362 15.8413ZM58.5427 35.7305C58.2104 36.7352 57.728 37.6366 57.0956 38.4349L57.2012 38.5185C57.8437 37.7073 58.3335 36.7919 58.6705 35.7727L58.5427 35.7305ZM57.0952 38.4355C56.473 39.2388 55.6533 39.8738 54.6343 40.3399L54.6903 40.4623C55.7271 39.9881 56.5648 39.3402 57.2016 38.518L57.0952 38.4355ZM54.6343 40.3399C53.6178 40.8048 52.3451 41.0389 50.8136 41.0389V41.1736C52.3579 41.1736 53.6511 40.9376 54.6903 40.4623L54.6343 40.3399Z" fill="white"/>
</svg>
