<svg width="24" height="24" viewBox="0 0 24 24" fill="none" xmlns="http://www.w3.org/2000/svg">
<path fill-rule="evenodd" clip-rule="evenodd" d="M8.39204 3.43023C8.64722 3.15878 9.00016 3 9.37521 3H14.6265C15.0016 3 15.3545 3.15878 15.6097 3.43023C15.8639 3.70064 16.0017 4.06113 16.0017 4.43103V5H17.25C17.7141 5 18.1592 5.1873 18.4874 5.5207C18.8156 5.8541 19 6.30628 19 6.77778V19.2222C19 19.6937 18.8156 20.1459 18.4874 20.4793C18.1592 20.8127 17.7141 21 17.25 21H6.75C6.28587 21 5.84075 20.8127 5.51256 20.4793C5.18437 20.1459 5 19.6937 5 19.2222V6.77778C5 6.30628 5.18437 5.8541 5.51256 5.5207C5.84075 5.1873 6.28587 5 6.75 5H8V4.43103C8 4.06113 8.13785 3.70064 8.39204 3.43023ZM9 5H15.0017V4.43103C15.0017 4.30708 14.9551 4.19396 14.8811 4.11516C14.808 4.03741 14.7157 4 14.6265 4H9.37521C9.28603 4 9.19374 4.03741 9.12065 4.11516C9.04657 4.19396 9 4.30708 9 4.43103V5ZM12.5 11C12.5 10.7239 12.7239 10.5 13 10.5H16C16.2761 10.5 16.5 10.7239 16.5 11C16.5 11.2761 16.2761 11.5 16 11.5H13C12.7239 11.5 12.5 11.2761 12.5 11ZM9 10.5C8.72386 10.5 8.5 10.7239 8.5 11C8.5 11.2761 8.72386 11.5 9 11.5H10C10.2761 11.5 10.5 11.2761 10.5 11C10.5 10.7239 10.2761 10.5 10 10.5H9ZM8.5 15C8.5 14.7239 8.72386 14.5 9 14.5H10C10.2761 14.5 10.5 14.7239 10.5 15C10.5 15.2761 10.2761 15.5 10 15.5H9C8.72386 15.5 8.5 15.2761 8.5 15ZM13 14.5C12.7239 14.5 12.5 14.7239 12.5 15C12.5 15.2761 12.7239 15.5 13 15.5H16C16.2761 15.5 16.5 15.2761 16.5 15C16.5 14.7239 16.2761 14.5 16 14.5H13Z" fill="black"/>
</svg>
