<svg width="24" height="24" viewBox="0 0 24 24" fill="none" xmlns="http://www.w3.org/2000/svg">
<rect x="3.6001" y="4.31995" width="12.48" height="14.88" rx="1.2" fill="#E8E8E8"/>
<path fill-rule="evenodd" clip-rule="evenodd" d="M8.81054 3.60036C8.88251 3.19317 9.31602 2.88013 9.84005 2.88013C10.3641 2.88013 10.7976 3.19317 10.8696 3.60036H12.48C12.7451 3.60036 12.96 3.81526 12.96 4.08036V4.80036C12.96 5.06546 12.7451 5.28036 12.48 5.28036H7.19997C6.93487 5.28036 6.71997 5.06546 6.71997 4.80036V4.08036C6.71997 3.81526 6.93487 3.60036 7.19997 3.60036H8.81054Z" fill="#D2D2D2"/>
<path d="M6.23999 8.1604H13.44" stroke="#B7B7B7" stroke-width="0.72" stroke-linecap="round"/>
<path d="M6.23999 11.0403H13.44" stroke="#B7B7B7" stroke-width="0.72" stroke-linecap="round"/>
<path d="M6.23999 13.9202H13.44" stroke="#B7B7B7" stroke-width="0.72" stroke-linecap="round"/>
<g clip-path="url(#clip0_1820_16783)">
<path d="M15.1556 13.0643L11.7676 18.7203C11.6978 18.8413 11.6608 18.9784 11.6604 19.1181C11.66 19.2578 11.6962 19.3951 11.7654 19.5165C11.8346 19.6379 11.9343 19.739 12.0547 19.8098C12.1751 19.8807 12.3119 19.9188 12.4516 19.9203H19.2276C19.3673 19.9188 19.5041 19.8807 19.6245 19.8098C19.7449 19.739 19.8447 19.6379 19.9138 19.5165C19.983 19.3951 20.0192 19.2578 20.0188 19.1181C20.0184 18.9784 19.9815 18.8413 19.9116 18.7203L16.5236 13.0643C16.4523 12.9467 16.3519 12.8495 16.2321 12.7821C16.1123 12.7146 15.9771 12.6792 15.8396 12.6792C15.7021 12.6792 15.5669 12.7146 15.4471 12.7821C15.3273 12.8495 15.2269 12.9467 15.1556 13.0643Z" fill="#D2D2D2"/>
<path d="M15.8396 15.1202V16.7202" stroke="#B7B7B7" stroke-width="0.8" stroke-linecap="round" stroke-linejoin="round"/>
<path d="M15.8396 18.3203H15.8434" stroke="#B7B7B7" stroke-width="0.8" stroke-linecap="round" stroke-linejoin="round"/>
</g>
<defs>
<clipPath id="clip0_1820_16783">
<rect width="9.6" height="9.6" fill="white" transform="translate(11.0398 11.5201)"/>
</clipPath>
</defs>
</svg>
