<svg width="32" height="32" viewBox="0 0 32 32" fill="none" xmlns="http://www.w3.org/2000/svg">
<path d="M18.1905 25.0991C18.1905 26.7013 16.9113 28.0002 15.3334 28.0002C13.7554 28.0002 12.4762 26.7013 12.4762 25.0991M10.3334 25.0991C7.57195 25.0991 5.33337 22.8261 5.33337 20.0222C5.33337 18.8825 5.70322 17.8305 6.32769 16.9832C7.32823 15.6257 8.19052 13.7398 8.19052 12.0442C8.19052 8.0386 11.3885 5.3335 15.3334 5.3335C20.3334 5.3335 22.4762 8.59775 22.4762 12.0442C22.4762 13.4933 22.8771 14.9997 24.3391 16.9832C24.9635 17.8305 25.3334 18.8825 25.3334 20.0222C25.3334 22.8261 23.0948 25.0991 20.3334 25.0991H10.3334Z" stroke="black" stroke-width="2" stroke-linecap="round" stroke-linejoin="round"/>
</svg>
