<svg width="24" height="24" viewBox="0 0 24 24" fill="none" xmlns="http://www.w3.org/2000/svg">
<path d="M11.4544 4.90918H5.93928C5.52137 4.90918 5.12057 5.08797 4.82505 5.40621C4.52954 5.72445 4.36353 6.15608 4.36353 6.60615V18.4849C4.36353 18.935 4.52954 19.3666 4.82505 19.6849C5.12057 20.0031 5.52137 20.1819 5.93928 20.1819H16.9696C17.3875 20.1819 17.7883 20.0031 18.0838 19.6849C18.3793 19.3666 18.5453 18.935 18.5453 18.4849V12.5455" stroke="black" stroke-width="1.5" stroke-linecap="round" stroke-linejoin="round"/>
<path d="M17.1185 5.34117C17.3951 5.06457 17.7702 4.90918 18.1614 4.90918C18.5526 4.90918 18.9277 5.06457 19.2043 5.34117C19.4809 5.61776 19.6363 5.99291 19.6363 6.38408C19.6363 6.77525 19.4809 7.15039 19.2043 7.42699L12.5992 14.0321L9.81812 14.7274L10.5134 11.9463L17.1185 5.34117Z" stroke="black" stroke-width="1.5" stroke-linecap="round" stroke-linejoin="round"/>
</svg>
