<svg width="24" height="24" viewBox="0 0 24 24" fill="none" xmlns="http://www.w3.org/2000/svg">
<path d="M14 4.00002H7.25092C5.45549 4.00002 4 5.4558 4 7.2516V11.3161C4 12.3516 4.48394 13.274 5.23794 13.8695C5.46564 14.0493 5.62546 14.3114 5.62546 14.6015V16.1855C5.62546 16.9148 6.51148 17.2751 7.02033 16.7527L8.90942 14.8133C9.0624 14.6562 9.27233 14.5677 9.49155 14.5677H13.7491C15.5445 14.5677 17 13.1119 17 11.3161V9M10 14.6V15.6278C10 17.0091 11.1196 18.129 12.5007 18.129H15.7757C15.9444 18.129 16.1058 18.1971 16.2235 18.3179L17.6767 19.8098C18.0681 20.2117 18.7496 19.9345 18.7496 19.3735V18.155C18.7496 17.9318 18.8726 17.7302 19.0477 17.5919C19.6277 17.1339 20 16.4243 20 15.6278V12.5012C20 11.1199 18.8804 10 17.4993 10H17M18.5 5.5C18.5 6.32843 17.8284 7 17 7C16.1716 7 15.5 6.32843 15.5 5.5C15.5 4.67157 16.1716 4 17 4C17.8284 4 18.5 4.67157 18.5 5.5Z" stroke="#F7F7F7" stroke-width="1.5" stroke-linecap="round" stroke-linejoin="round"/>
</svg>
