<svg width="24" height="24" viewBox="0 0 24 24" fill="none" xmlns="http://www.w3.org/2000/svg">
<path d="M4 12C4 10.741 4.59278 9.55542 5.6 8.8L9.6 5.8C11.0222 4.73333 12.9778 4.73333 14.4 5.8L18.4 8.8C19.4072 9.55542 20 10.741 20 12V18C20 19.1046 19.1046 20 18 20H15.5263C14.974 20 14.5263 19.5523 14.5263 19V17.2C14.5263 16.0954 13.6309 15.2 12.5263 15.2H11.4737C10.3691 15.2 9.47368 16.0954 9.47368 17.2V19C9.47368 19.5523 9.02597 20 8.47368 20H6C4.89543 20 4 19.1046 4 18L4 12Z" stroke="#F7F7F7" stroke-width="1.5"/>
</svg>
