<svg width="32" height="32" viewBox="0 0 32 32" fill="none" xmlns="http://www.w3.org/2000/svg">
<path d="M18.1905 27.7656C18.1905 29.3678 16.9113 30.6667 15.3334 30.6667C13.7554 30.6667 12.4762 29.3678 12.4762 27.7656M10.3334 27.7656C7.57195 27.7656 5.33337 25.4926 5.33337 22.6887C5.33337 21.549 5.70322 20.497 6.32769 19.6497C7.32823 18.2922 8.19052 16.4063 8.19052 14.7107C8.19052 10.7051 11.3885 8 15.3334 8C20.3334 8 22.4762 11.2643 22.4762 14.7107C22.4762 16.1598 22.8771 17.6662 24.3391 19.6497C24.9635 20.497 25.3334 21.549 25.3334 22.6887C25.3334 25.4926 23.0948 27.7656 20.3334 27.7656H10.3334Z" stroke="black" stroke-width="2" stroke-linecap="round" stroke-linejoin="round"/>
<ellipse cx="25.3333" cy="4.00016" rx="2.66667" ry="2.66667" fill="black"/>
</svg>
