<svg width="24" height="24" viewBox="0 0 24 24" fill="none" xmlns="http://www.w3.org/2000/svg">
<path d="M14 18C14 19.1046 13.1046 20 12 20C10.8954 20 10 19.1046 10 18M8.5 18C6.567 18 5 16.433 5 14.5C5 13.7143 5.25889 12.9891 5.69602 12.405C6.3964 11.4691 7 10.1689 7 9C7 6.23858 9.23858 4 12 4C14.7614 4 17 6.23858 17 9C17 10.1689 17.6036 11.4691 18.304 12.405C18.7411 12.9891 19 13.7143 19 14.5C19 16.433 17.433 18 15.5 18H8.5Z" stroke="#F7F7F7" stroke-width="1.5" stroke-linecap="round" stroke-linejoin="round"/>
</svg>
