<svg width="24" height="24" viewBox="0 0 24 24" fill="none" xmlns="http://www.w3.org/2000/svg">
<path d="M18.5 19C18.7761 19 19 18.7761 19 18.5V17C19 15.9391 18.6313 14.9217 17.9749 14.1716C17.3185 13.4214 16.4283 13 15.5 13H8.5C7.57174 13 6.6815 13.4214 6.02513 14.1716C5.36875 14.9217 5 15.9391 5 17V18.5" fill="black"/>
<path d="M19 17V18.5C19 18.7761 18.7761 19 18.5 19H5.5C5.22386 19 5 18.7761 5 18.5V17C5 15.9391 5.36875 14.9217 6.02513 14.1716C6.6815 13.4214 7.57174 13 8.5 13H15.5C16.4283 13 17.3185 13.4214 17.9749 14.1716C18.6312 14.9217 19 15.9391 19 17Z" stroke="black" stroke-linecap="round" stroke-linejoin="round"/>
<path d="M12 11C13.6569 11 15 9.65685 15 8C15 6.34315 13.6569 5 12 5C10.3431 5 9 6.34315 9 8C9 9.65685 10.3431 11 12 11Z" fill="black" stroke="black" stroke-linecap="round" stroke-linejoin="round"/>
</svg>
