<svg width="24" height="24" viewBox="0 0 24 24" fill="none" xmlns="http://www.w3.org/2000/svg">
<path d="M7.42857 7.50014C7.42857 5.01478 9.47527 3 12 3C14.5247 3 16.5714 5.01478 16.5714 7.50014C16.5714 9.98549 14.5247 12.0003 12 12.0003C9.47527 12.0003 7.42857 9.98549 7.42857 7.50014Z" stroke="black" stroke-width="1.5" stroke-linecap="round" stroke-linejoin="round"/>
<path d="M8.14784 14.4999C7.93797 14.3476 7.68927 14.2498 7.42857 14.2498C5.53502 14.2498 4 15.7609 4 17.6249C4 19.4889 5.53502 21 7.42857 21H16.5714C18.465 21 20 19.4889 20 17.6249C20 15.7609 18.465 14.2498 16.5714 14.2498C16.3107 14.2498 16.062 14.3476 15.8522 14.4999C15.094 15.0499 14.157 15.375 13.1429 15.375H10.8571C9.84303 15.375 8.90604 15.0499 8.14784 14.4999Z" stroke="black" stroke-width="1.5" stroke-linecap="round" stroke-linejoin="round"/>
</svg>
