<svg width="24" height="24" viewBox="0 0 24 24" fill="none" xmlns="http://www.w3.org/2000/svg">
<path d="M13.6429 18.8242C13.6429 20.0259 12.6835 21 11.5 21C10.3165 21 9.35714 20.0259 9.35714 18.8242M7.75 18.8242C5.67893 18.8242 4 17.1194 4 15.0165C4 14.1617 4.27738 13.3728 4.74573 12.7373C5.49615 11.7191 6.14286 10.3047 6.14286 9.033C6.14286 6.02882 8.54133 4 11.5 4C15.25 4 16.8571 6.44819 16.8571 9.03306C16.8571 10.1199 17.1578 11.2496 18.2543 12.7373C18.7226 13.3728 19 14.1617 19 15.0165C19 17.1194 17.3211 18.8242 15.25 18.8242H7.75Z" stroke="black" stroke-width="1.5" stroke-linecap="round" stroke-linejoin="round"/>
</svg>
