<svg width="24" height="24" viewBox="0 0 24 24" fill="none" xmlns="http://www.w3.org/2000/svg">
<path fill-rule="evenodd" clip-rule="evenodd" d="M19.8476 3C19.5419 3 19.2488 3.12142 19.0327 3.33754L18.0893 4.2809L11.7305 10.6398L11.1872 12.8128L13.3602 12.2696H13.3602L18.1464 7.48334C18.1471 7.48266 18.1478 7.48199 18.1485 7.48131L20.6625 4.96732C20.8786 4.7512 21 4.45808 21 4.15243C21 3.84679 20.8786 3.55366 20.6625 3.33754C20.4463 3.12142 20.1532 3 19.8476 3ZM19 8.04401L21.3696 5.67443C21.7732 5.27077 22 4.72329 22 4.15243C22 3.58157 21.7732 3.03409 21.3696 2.63043C20.9659 2.22677 20.4184 2 19.8476 2C19.2767 2 18.7292 2.22677 18.3256 2.63043L17.6672 3.28878C17.3187 3.10447 16.9212 3 16.5 3H5.5C4.11929 3 3 4.11929 3 5.5V18.5C3 19.8807 4.11929 21 5.5 21H16.5C17.8807 21 19 19.8807 19 18.5V8.04401Z" fill="black"/>
</svg>
