<svg width="24" height="24" viewBox="0 0 24 24" fill="none" xmlns="http://www.w3.org/2000/svg">
<rect x="4.08008" y="4.80017" width="12.48" height="14.88" rx="1.2" fill="#E8E8E8"/>
<path fill-rule="evenodd" clip-rule="evenodd" d="M9.2905 4.08011C9.36259 3.67303 9.79604 3.36011 10.32 3.36011C10.8439 3.36011 11.2773 3.67303 11.3494 4.08011H12.96C13.225 4.08011 13.44 4.29501 13.44 4.56011V5.28011C13.44 5.5452 13.225 5.76011 12.96 5.76011H7.67995C7.41485 5.76011 7.19995 5.5452 7.19995 5.28011V4.56011C7.19995 4.29501 7.41485 4.08011 7.67995 4.08011H9.2905Z" fill="#D2D2D2"/>
<path d="M6.71997 8.64014H13.92" stroke="#B7B7B7" stroke-width="0.72" stroke-linecap="round"/>
<path d="M6.71997 11.5201H13.92" stroke="#B7B7B7" stroke-width="0.72" stroke-linecap="round"/>
<path d="M6.71997 14.4001H13.92" stroke="#B7B7B7" stroke-width="0.72" stroke-linecap="round"/>
<path d="M17.7659 12.6097C18.0025 12.3731 18.3235 12.2401 18.6582 12.2401C18.9928 12.2401 19.3138 12.3731 19.5504 12.6097C19.7871 12.8463 19.92 13.1673 19.92 13.502C19.92 13.8366 19.7871 14.1576 19.5504 14.3942L13.8994 20.0453L11.52 20.6401L12.1149 18.2607L17.7659 12.6097Z" fill="#B7B7B7" stroke="#B7B7B7" stroke-width="0.48" stroke-linecap="round" stroke-linejoin="round"/>
</svg>
