<svg width="24" height="24" viewBox="0 0 24 24" fill="none" xmlns="http://www.w3.org/2000/svg">
<path d="M10 14.6V15.6277C10 17.0091 11.1196 18.129 12.5007 18.129H15.7757C15.9444 18.129 16.1058 18.1971 16.2235 18.3179L17.6767 19.8098C18.0681 20.2116 18.7496 19.9345 18.7496 19.3734V18.155C18.7496 17.9318 18.8726 17.7302 19.0477 17.5919C19.6277 17.1338 20 16.4243 20 15.6277V12.5012C20 11.1198 18.8804 10 17.4993 10H17M4 7.25158C4 5.45578 5.45549 4 7.25092 4H13.7491C15.5445 4 17 5.45578 17 7.25158V11.3161C17 13.1119 15.5445 14.5676 13.7491 14.5676H9.49155C9.27233 14.5676 9.0624 14.6562 8.90942 14.8133L7.02033 16.7527C6.51148 17.2751 5.62546 16.9148 5.62546 16.1855V14.6015C5.62546 14.3113 5.46564 14.0493 5.23794 13.8695C4.48394 13.274 4 12.3516 4 11.3161V7.25158Z" stroke="#F7F7F7" stroke-width="1.5" stroke-linecap="round" stroke-linejoin="round"/>
</svg>
