<svg width="24" height="24" viewBox="0 0 24 24" fill="none" xmlns="http://www.w3.org/2000/svg">
<path d="M8 8C8 5.79086 9.79086 4 12 4C14.2091 4 16 5.79086 16 8C16 10.2091 14.2091 12 12 12C9.79086 12 8 10.2091 8 8Z" stroke="#F7F7F7" stroke-width="1.5" stroke-linecap="round" stroke-linejoin="round"/>
<path d="M8.62936 14.2218C8.44572 14.0865 8.22811 13.9995 8 13.9995C6.34315 13.9995 5 15.3427 5 16.9995C5 18.6564 6.34315 19.9995 8 19.9995H16C17.6569 19.9995 19 18.6564 19 16.9995C19 15.3427 17.6569 13.9995 16 13.9995C15.7719 13.9995 15.5543 14.0865 15.3706 14.2218C14.7072 14.7107 13.8874 14.9997 13 14.9997H11C10.1127 14.9997 9.29278 14.7107 8.62936 14.2218Z" stroke="#F7F7F7" stroke-width="1.5" stroke-linecap="round" stroke-linejoin="round"/>
</svg>
