<svg width="25" height="24" viewBox="0 0 25 24" fill="none" xmlns="http://www.w3.org/2000/svg">
<path d="M15.8855 5H17.5782C18.0271 5 18.4577 5.1873 18.7751 5.5207C19.0926 5.8541 19.2709 6.30628 19.2709 6.77778V19.2222C19.2709 19.6937 19.0926 20.1459 18.7751 20.4793C18.4577 20.8127 18.0271 21 17.5782 21H7.42196C6.97302 21 6.54248 20.8127 6.22503 20.4793C5.90759 20.1459 5.72925 19.6937 5.72925 19.2222V6.77778C5.72925 6.30628 5.90759 5.8541 6.22503 5.5207C6.54248 5.1873 6.97302 5 7.42196 5H9.11466" stroke="black" stroke-width="1.5" stroke-linecap="round" stroke-linejoin="round"/>
<path d="M14.8438 3H10.1562C9.94905 3 9.75034 3.10536 9.60382 3.29289C9.45731 3.48043 9.375 3.73478 9.375 4V6C9.375 6.26522 9.45731 6.51957 9.60382 6.70711C9.75034 6.89464 9.94905 7 10.1562 7H14.8438C15.051 7 15.2497 6.89464 15.3962 6.70711C15.5427 6.51957 15.625 6.26522 15.625 6V4C15.625 3.73478 15.5427 3.48043 15.3962 3.29289C15.2497 3.10536 15.051 3 14.8438 3V3Z" stroke="black" stroke-width="1.5" stroke-linecap="round" stroke-linejoin="round"/>
<path d="M13.0208 12H16.1458" stroke="black" stroke-width="1.5" stroke-linecap="round" stroke-linejoin="round"/>
<path d="M9.375 12H10.4167" stroke="black" stroke-width="1.5" stroke-linecap="round" stroke-linejoin="round"/>
<path d="M9.375 16H10.4167" stroke="black" stroke-width="1.5" stroke-linecap="round" stroke-linejoin="round"/>
<path d="M13.0208 16H16.1458" stroke="black" stroke-width="1.5" stroke-linecap="round" stroke-linejoin="round"/>
</svg>
