<svg width="30" height="30" viewBox="0 0 30 30" fill="none" xmlns="http://www.w3.org/2000/svg">
<path d="M17.9286 21.5682C17.9286 22.9112 16.8413 24 15.5 24C14.1587 24 13.0714 22.9112 13.0714 21.5682M11.25 21.5682C8.90279 21.5682 7 19.6629 7 17.3126C7 16.3572 7.31437 15.4754 7.84516 14.7652C8.69563 13.6273 9.42857 12.0464 9.42857 10.6251C9.42857 7.26751 12.1468 5 15.5 5C19.75 5 21.5714 7.73622 21.5714 10.6252C21.5714 11.8399 21.9122 13.1025 23.1548 14.7652C23.6856 15.4754 24 16.3572 24 17.3126C24 19.6629 22.0972 21.5682 19.75 21.5682H11.25Z" stroke="black" stroke-width="1.5" stroke-linecap="round" stroke-linejoin="round"/>
</svg>
