<svg width="24" height="24" viewBox="0 0 24 24" fill="none" xmlns="http://www.w3.org/2000/svg">
<path d="M3.6001 5.04006C3.6001 4.77496 3.815 4.56006 4.0801 4.56006H16.0801C16.3452 4.56006 16.5601 4.77496 16.5601 5.04006V6.48006H3.6001V5.04006Z" fill="#D2D2D2"/>
<circle cx="4.56007" cy="5.52003" r="0.24" fill="#B7B7B7"/>
<circle cx="5.61793" cy="5.52003" r="0.24" fill="#B7B7B7"/>
<circle cx="6.67603" cy="5.52003" r="0.24" fill="#B7B7B7"/>
<path d="M3.6001 6.4801H16.5601V16.3201C16.5601 16.5852 16.3452 16.8001 16.0801 16.8001H4.0801C3.815 16.8001 3.6001 16.5852 3.6001 16.3201V6.4801Z" fill="#E8E8E8"/>
<g clip-path="url(#clip0_1953_17628)">
<path d="M15.3958 11.6244L12.0078 17.2804C11.938 17.4013 11.901 17.5385 11.9006 17.6782C11.9002 17.8179 11.9364 17.9552 12.0056 18.0766C12.0748 18.1979 12.1745 18.2991 12.2949 18.3699C12.4153 18.4407 12.5522 18.4788 12.6918 18.4804H19.4678C19.6075 18.4788 19.7444 18.4407 19.8648 18.3699C19.9852 18.2991 20.0849 18.1979 20.1541 18.0766C20.2232 17.9552 20.2594 17.8179 20.259 17.6782C20.2587 17.5385 20.2217 17.4013 20.1518 17.2804L16.7638 11.6244C16.6925 11.5068 16.5921 11.4096 16.4723 11.3421C16.3525 11.2747 16.2173 11.2393 16.0798 11.2393C15.9423 11.2393 15.8072 11.2747 15.6874 11.3421C15.5676 11.4096 15.4671 11.5068 15.3958 11.6244Z" fill="#D2D2D2"/>
<path d="M16.0798 13.6802V15.2802" stroke="#B7B7B7" stroke-width="0.8" stroke-linecap="round" stroke-linejoin="round"/>
<path d="M16.0798 16.8801H16.0837" stroke="#B7B7B7" stroke-width="0.8" stroke-linecap="round" stroke-linejoin="round"/>
</g>
<defs>
<clipPath id="clip0_1953_17628">
<rect width="9.6" height="9.6" fill="white" transform="translate(11.28 10.0801)"/>
</clipPath>
</defs>
</svg>
