<svg width="24" height="24" viewBox="0 0 24 24" fill="none" xmlns="http://www.w3.org/2000/svg">
<path d="M13.6429 20.8242C13.6429 22.0259 12.6835 23 11.5 23C10.3165 23 9.35714 22.0259 9.35714 20.8242M7.75 20.8242C5.67893 20.8242 4 19.1194 4 17.0165C4 16.1617 4.27738 15.3728 4.74573 14.7373C5.49615 13.7191 6.14286 12.3047 6.14286 11.033C6.14286 8.02882 8.54133 6 11.5 6C15.25 6 16.8571 8.44819 16.8571 11.0331C16.8571 12.1199 17.1578 13.2496 18.2543 14.7373C18.7226 15.3728 19 16.1617 19 17.0165C19 19.1194 17.3211 20.8242 15.25 20.8242H7.75Z" stroke="black" stroke-width="1.5" stroke-linecap="round" stroke-linejoin="round"/>
<circle cx="19" cy="3" r="2" fill="black"/>
</svg>
