<svg width="24" height="24" viewBox="0 0 24 24" fill="none" xmlns="http://www.w3.org/2000/svg">
<path d="M3 11.125C3 9.86597 3.59278 8.68042 4.6 7.925L10.1 3.8C11.5222 2.73333 13.4778 2.73333 14.9 3.8L20.4 7.925C21.4072 8.68042 22 9.86597 22 11.125V19C22 20.1046 21.1046 21 20 21H16.5C15.9477 21 15.5 20.5523 15.5 20V17.3C15.5 16.1954 14.6046 15.3 13.5 15.3H11.5C10.3954 15.3 9.5 16.1954 9.5 17.3V20C9.5 20.5523 9.05228 21 8.5 21H5C3.89543 21 3 20.1046 3 19L3 11.125Z" stroke="black" stroke-width="1.5"/>
</svg>
