<svg width="24" height="24" viewBox="0 0 24 24" fill="none" xmlns="http://www.w3.org/2000/svg">
<path d="M15.5 5H17.25C17.7141 5 18.1592 5.1873 18.4874 5.5207C18.8156 5.8541 19 6.30628 19 6.77778V19.2222C19 19.6937 18.8156 20.1459 18.4874 20.4793C18.1592 20.8127 17.7141 21 17.25 21H6.75C6.28587 21 5.84075 20.8127 5.51256 20.4793C5.18437 20.1459 5 19.6937 5 19.2222V6.77778C5 6.30628 5.18437 5.8541 5.51256 5.5207C5.84075 5.1873 6.28587 5 6.75 5H8.5" fill="black"/>
<path d="M15.5 5H17.25C17.7141 5 18.1592 5.1873 18.4874 5.5207C18.8156 5.8541 19 6.30628 19 6.77778V19.2222C19 19.6937 18.8156 20.1459 18.4874 20.4793C18.1592 20.8127 17.7141 21 17.25 21H6.75C6.28587 21 5.84075 20.8127 5.51256 20.4793C5.18437 20.1459 5 19.6937 5 19.2222V6.77778C5 6.30628 5.18437 5.8541 5.51256 5.5207C5.84075 5.1873 6.28587 5 6.75 5H8.5" stroke="black" stroke-width="0.5" stroke-linecap="round" stroke-linejoin="round"/>
<path d="M15.875 3H9.125C8.82663 3 8.54048 3.07902 8.32951 3.21967C8.11853 3.36032 8 3.55109 8 3.75V5.25C8 5.44891 8.11853 5.63968 8.32951 5.78033C8.54048 5.92098 8.82663 6 9.125 6H15.875C16.1734 6 16.4595 5.92098 16.6705 5.78033C16.8815 5.63968 17 5.44891 17 5.25V3.75C17 3.55109 16.8815 3.36032 16.6705 3.21967C16.4595 3.07902 16.1734 3 15.875 3Z" fill="white" stroke="black" stroke-linecap="round" stroke-linejoin="round"/>
<path d="M13 11H16" stroke="white" stroke-linecap="round" stroke-linejoin="round"/>
<path d="M9 11H10" stroke="white" stroke-linecap="round" stroke-linejoin="round"/>
<path d="M9 15H10" stroke="white" stroke-linecap="round" stroke-linejoin="round"/>
<path d="M13 15H16" stroke="white" stroke-linecap="round" stroke-linejoin="round"/>
</svg>
