<svg width="24" height="24" viewBox="0 0 24 24" fill="none" xmlns="http://www.w3.org/2000/svg">
<rect x="4.08008" y="4.7998" width="12.48" height="14.88" rx="1.2" fill="#E8E8E8"/>
<path fill-rule="evenodd" clip-rule="evenodd" d="M9.29055 4.08C9.36264 3.67292 9.79609 3.36 10.32 3.36C10.844 3.36 11.2774 3.67292 11.3495 4.08H12.96C13.2251 4.08 13.44 4.2949 13.44 4.56V5.28C13.44 5.5451 13.2251 5.76 12.96 5.76H7.68C7.4149 5.76 7.2 5.5451 7.2 5.28V4.56C7.2 4.2949 7.4149 4.08 7.68 4.08H9.29055Z" fill="#D2D2D2"/>
<path d="M6.71997 8.64014H13.92" stroke="#B7B7B7" stroke-width="0.72" stroke-linecap="round"/>
<path d="M6.71997 11.52H13.92" stroke="#B7B7B7" stroke-width="0.72" stroke-linecap="round"/>
<path d="M6.71997 14.3999H13.92" stroke="#B7B7B7" stroke-width="0.72" stroke-linecap="round"/>
<path d="M17.7659 12.6098C18.0025 12.3732 18.3235 12.2402 18.6582 12.2402C18.9928 12.2402 19.3138 12.3732 19.5504 12.6098C19.7871 12.8465 19.92 13.1674 19.92 13.5021C19.92 13.8368 19.7871 14.1577 19.5504 14.3944L13.8994 20.0454L11.52 20.6402L12.1149 18.2609L17.7659 12.6098Z" fill="#B7B7B7" stroke="#B7B7B7" stroke-width="0.48" stroke-linecap="round" stroke-linejoin="round"/>
</svg>
