<svg width="24" height="24" viewBox="0 0 24 24" fill="none" xmlns="http://www.w3.org/2000/svg">
<rect x="4.08008" y="4.7998" width="12.48" height="14.88" rx="1.2" fill="#E8E8E8"/>
<path fill-rule="evenodd" clip-rule="evenodd" d="M9.2905 4.07986C9.36259 3.67279 9.79604 3.35986 10.32 3.35986C10.8439 3.35986 11.2773 3.67279 11.3494 4.07986H12.96C13.225 4.07986 13.44 4.29477 13.44 4.55986V5.27986C13.44 5.54496 13.225 5.75986 12.96 5.75986H7.67995C7.41485 5.75986 7.19995 5.54496 7.19995 5.27986V4.55986C7.19995 4.29477 7.41485 4.07986 7.67995 4.07986H9.2905Z" fill="#D2D2D2"/>
<path d="M6.71997 8.64014H13.92" stroke="#B7B7B7" stroke-width="0.72" stroke-linecap="round"/>
<path d="M6.71997 11.52H13.92" stroke="#B7B7B7" stroke-width="0.72" stroke-linecap="round"/>
<path d="M6.71997 14.3999H13.92" stroke="#B7B7B7" stroke-width="0.72" stroke-linecap="round"/>
<path d="M17.7659 12.6098C18.0025 12.3732 18.3235 12.2402 18.6582 12.2402C18.9928 12.2402 19.3138 12.3732 19.5504 12.6098C19.7871 12.8465 19.92 13.1674 19.92 13.5021C19.92 13.8368 19.7871 14.1577 19.5504 14.3944L13.8994 20.0454L11.52 20.6402L12.1149 18.2609L17.7659 12.6098Z" fill="#B7B7B7" stroke="#B7B7B7" stroke-width="0.48" stroke-linecap="round" stroke-linejoin="round"/>
</svg>
